<?xml version="1.0" standalone="no"?>
<!DOCTYPE svg PUBLIC "-//W3C//DTD SVG 20010904//EN"
 "http://www.w3.org/TR/2001/REC-SVG-20010904/DTD/svg10.dtd">
<svg version="1.0" xmlns="http://www.w3.org/2000/svg"
 width="500.000000pt" height="500.000000pt" viewBox="0 0 500.000000 500.000000"
 preserveAspectRatio="xMidYMid meet">

<g transform="translate(0.000000,500.000000) scale(0.100000,-0.100000)"
fill="#000000" stroke="none">
<path d="M1105 3698 c-3 -7 -4 -551 -3 -1208 l3 -1195 1392 -3 1393 -2 2 1187
c2 654 2 1198 0 1211 l-3 22 -1390 0 c-1102 0 -1391 -3 -1394 -12z m475 -568
l0 -250 205 0 205 0 0 80 0 80 -125 0 -125 0 0 170 0 170 300 0 300 0 0 -125
0 -125 125 0 125 0 0 -125 0 -125 75 0 75 0 0 250 0 250 50 0 50 0 0 -125 0
-125 125 0 125 0 0 -125 0 -125 80 0 80 0 0 250 0 250 170 0 170 0 0 -170 0
-170 -45 0 -45 0 0 125 0 125 -80 0 -80 0 0 -205 0 -205 125 0 125 0 0 -45 0
-45 -295 0 -294 0 -3 123 -3 122 -77 3 -78 3 0 -126 0 -125 -175 0 -175 0 0
125 0 125 -125 0 -125 0 0 125 0 125 -205 0 -206 0 3 -77 3 -78 123 -3 122 -3
0 -169 0 -170 -295 0 -295 0 0 250 0 250 -125 0 -125 0 0 45 0 45 170 0 170 0
0 -250z m-250 -45 l0 -45 -45 0 -45 0 0 45 0 45 45 0 45 0 0 -45z m0 -250 l0
-45 -45 0 -45 0 0 45 0 45 45 0 45 0 0 -45z m360 -535 l0 -50 -130 0 -130 0 0
-215 0 -215 215 0 215 0 0 135 0 135 136 0 136 0 -3 130 -4 130 53 0 52 0 0
-265 0 -265 80 0 80 0 0 265 0 265 50 0 50 0 0 -265 0 -265 85 0 85 0 0 265 0
265 50 0 50 0 0 -130 0 -130 335 0 335 0 0 -135 0 -135 80 0 80 0 0 215 0 215
-330 0 -330 0 0 50 0 50 385 0 385 0 0 -315 0 -315 -185 0 -184 0 -3 133 -3
132 -280 0 -280 0 -3 -132 -3 -133 -314 0 -314 0 -3 132 -3 132 -80 1 -80 0
-3 -132 -3 -133 -314 0 c-172 0 -315 3 -317 8 -2 4 -2 145 0 315 l3 307 179 0
180 0 0 -50z m0 -266 l0 -57 -37 7 c-21 3 -44 6 -50 6 -9 0 -13 17 -13 50 l0
50 50 0 50 0 0 -56z"/>
</g>
</svg>
